<svg width="20" height="22" viewBox="0 0 20 22" fill="none" xmlns="http://www.w3.org/2000/svg">
<path d="M13.75 16.25V19.625C13.75 20.2463 13.2463 20.75 12.625 20.75H2.875C2.25368 20.75 1.75 20.2463 1.75 19.625V6.875C1.75 6.25368 2.25368 5.75 2.875 5.75H4.75C5.26107 5.75 5.76219 5.7926 6.25 5.87444M13.75 16.25H17.125C17.7463 16.25 18.25 15.7463 18.25 15.125V10.25C18.25 5.79051 15.0066 2.08855 10.75 1.37444C10.2622 1.2926 9.76107 1.25 9.25 1.25H7.375C6.75368 1.25 6.25 1.75368 6.25 2.375V5.87444M13.75 16.25H7.375C6.75368 16.25 6.25 15.7463 6.25 15.125V5.87444M18.25 12.5V10.625C18.25 8.76104 16.739 7.25 14.875 7.25H13.375C12.7537 7.25 12.25 6.74632 12.25 6.125V4.625C12.25 2.76104 10.739 1.25 8.875 1.25H7.75" stroke="#64748B" stroke-width="2" stroke-linecap="round" stroke-linejoin="round"/>
</svg>
