<svg width="40" height="40" viewBox="0 0 40 40" fill="none" xmlns="http://www.w3.org/2000/svg">
<path d="M29.9699 31.2078C28.8053 29.666 27.2986 28.4156 25.5685 27.5551C23.8384 26.6947 21.9321 26.2478 19.9999 26.2495C18.0676 26.2478 16.1613 26.6947 14.4312 27.5551C12.7011 28.4156 11.1944 29.666 10.0299 31.2078M29.9699 31.2078C32.2424 29.1865 33.8451 26.5221 34.5685 23.568C35.2919 20.6139 35.1003 17.5097 34.019 14.667C32.9376 11.8243 31.0177 9.37747 28.5139 7.651C26.01 5.92454 23.0404 5 19.999 5C16.9576 5 13.9881 5.92454 11.4842 7.651C8.98032 9.37747 7.06041 11.8243 5.97908 14.667C4.89776 17.5097 4.70611 20.6139 5.42956 23.568C6.153 26.5221 7.75736 29.1865 10.0299 31.2078M29.9699 31.2078C27.2266 33.6548 23.6759 35.0047 19.9999 34.9995C16.3232 35.0052 12.7736 33.6552 10.0299 31.2078M24.9999 16.2495C24.9999 17.5756 24.4731 18.8474 23.5354 19.785C22.5977 20.7227 21.3259 21.2495 19.9999 21.2495C18.6738 21.2495 17.402 20.7227 16.4643 19.785C15.5266 18.8474 14.9999 17.5756 14.9999 16.2495C14.9999 14.9234 15.5266 13.6517 16.4643 12.714C17.402 11.7763 18.6738 11.2495 19.9999 11.2495C21.3259 11.2495 22.5977 11.7763 23.5354 12.714C24.4731 13.6517 24.9999 14.9234 24.9999 16.2495Z" stroke="#64748B" stroke-width="1.5" stroke-linecap="round" stroke-linejoin="round"/>
</svg>
