<svg width="56" height="27" viewBox="0 0 56 27" fill="none" xmlns="http://www.w3.org/2000/svg">
<g clip-path="url(#clip0_651_4697)">
<path d="M8.3854 9.95185L0.632132 0.03125H5.6376L10.9914 6.97181L13.4038 4.15533H18.6144L13.4038 9.91313L21.5591 20.195H16.904L10.8107 12.9448L4.94096 20.195H0L8.3854 9.95185Z" fill="url(#paint0_linear_651_4697)"/>
<path d="M37.2362 0L44.5636 7.35336L51.8912 0H55.9808V20.1637H51.8912V5.6634L44.5636 12.72L37.2362 5.6634V0Z" fill="url(#paint1_linear_651_4697)"/>
<path d="M29.1249 0H37.2367L37.2767 5.70212L29.2767 2.55319L29.1249 0Z" fill="url(#paint2_linear_651_4697)"/>
<path d="M18.9816 0H29.7537C31.0696 0 32.2134 0.141907 33.1852 0.42572C34.1657 0.700936 34.9784 1.08365 35.6235 1.57388C36.2685 2.0641 36.7458 2.64893 37.0554 3.32836C37.3736 3.9992 37.5328 4.72592 37.5328 5.50856C37.5328 6.79004 37.1286 7.9124 36.3201 8.87564C37.249 9.42608 37.9413 10.1399 38.3971 11.0172C38.8529 11.8944 39.0808 12.892 39.0808 14.0101C39.0808 14.9476 38.9217 15.7947 38.6035 16.5515C38.2939 17.3084 37.8166 17.9577 37.1716 18.4995C36.5351 19.0328 35.7267 19.4456 34.7462 19.738C33.7744 20.0218 32.6262 20.1637 31.3018 20.1637H18.9816V0ZM31.3276 7.7404C31.6802 7.7404 32.0242 7.75328 32.3596 7.77908C32.9358 7.22864 33.224 6.60084 33.224 5.8956C33.224 5.16456 32.9358 4.60124 32.3596 4.2056C31.792 3.80139 30.9577 3.59928 29.8569 3.59928H23.0712V7.7404H31.3276ZM31.405 16.6031C32.5058 16.6031 33.34 16.3666 33.9077 15.8936C34.4839 15.4206 34.772 14.754 34.772 13.894C34.772 13.034 34.4839 12.3631 33.9077 11.8815C33.34 11.3999 32.5058 11.159 31.405 11.159H23.0712V16.6031H31.405Z" fill="url(#paint3_linear_651_4697)"/>
<path d="M16.3396 0H26.0271V3.5985H13.5717L16.3396 0Z" fill="url(#paint4_linear_651_4697)"/>
<path d="M31.4043 2.37622L27.2852 0L33.7646 2.1388L31.4043 2.37622Z" fill="url(#paint5_linear_651_4697)"/>
<path d="M0.150589 23.8347V23.5117H2.0752V23.8347H1.29929V25.9985H0.925292V23.8347H0.150589Z" fill="#1B1B1B"/>
<path d="M5.15048 25.9985V23.5117H6.7096V23.8347H5.52572V24.5924H6.62828V24.9142H5.52572V25.6755H6.7242V25.9985H5.15048Z" fill="#1B1B1B"/>
<path d="M11.9263 24.3212H11.5474C11.5329 24.2402 11.5057 24.169 11.4661 24.1075C11.4264 24.046 11.3778 23.9938 11.3203 23.9508C11.2629 23.908 11.1985 23.8756 11.1273 23.8537C11.0569 23.8318 10.982 23.8209 10.9027 23.8209C10.7594 23.8209 10.6311 23.857 10.5177 23.929C10.4052 24.001 10.3161 24.1067 10.2506 24.2459C10.1858 24.3852 10.1534 24.5552 10.1534 24.7559C10.1534 24.9583 10.1858 25.1291 10.2506 25.2683C10.3161 25.4076 10.4056 25.5128 10.5189 25.584C10.6323 25.6553 10.7598 25.6909 10.9014 25.6909C10.9799 25.6909 11.0544 25.6804 11.1249 25.6593C11.1961 25.6375 11.2605 25.6055 11.318 25.5634C11.3754 25.5213 11.424 25.4699 11.4636 25.4092C11.5041 25.3477 11.532 25.2772 11.5474 25.1979L11.9263 25.1991C11.906 25.3214 11.8668 25.4339 11.8085 25.5367C11.751 25.6387 11.677 25.7269 11.5863 25.8014C11.4964 25.8751 11.3936 25.9321 11.2779 25.9726C11.1621 26.0131 11.0358 26.0333 10.899 26.0333C10.6837 26.0333 10.4918 25.9823 10.3234 25.8803C10.1551 25.7775 10.0223 25.6306 9.92515 25.4396C9.82883 25.2485 9.78067 25.0206 9.78067 24.7559C9.78067 24.4904 9.82923 24.2625 9.92639 24.0723C10.0235 23.8812 10.1563 23.7347 10.3247 23.6327C10.493 23.5299 10.6845 23.4785 10.899 23.4785C11.031 23.4785 11.154 23.4975 11.2682 23.5356C11.3831 23.5728 11.4863 23.6278 11.5778 23.7007C11.6693 23.7728 11.7449 23.861 11.8049 23.9654C11.8647 24.069 11.9052 24.1876 11.9263 24.3212Z" fill="#1B1B1B"/>
<path d="M15.0253 25.9985V23.5117H15.4005V24.5924H16.6403V23.5117H17.0167V25.9985H16.6403V24.9142H15.4005V25.9985H15.0253Z" fill="#1B1B1B"/>
<path d="M22.2203 23.5117V25.9985H21.8754L20.6114 24.1747H20.5883V25.9985H20.2131V23.5117H20.5604L21.8257 25.338H21.8487V23.5117H22.2203Z" fill="#1B1B1B"/>
<path d="M27.5778 24.7559C27.5778 25.0214 27.5293 25.2497 27.4321 25.4408C27.335 25.631 27.2018 25.7775 27.0326 25.8803C26.8642 25.9823 26.6728 26.0333 26.4583 26.0333C26.243 26.0333 26.0507 25.9823 25.8815 25.8803C25.7131 25.7775 25.5804 25.6306 25.4832 25.4396C25.3861 25.2485 25.3375 25.0206 25.3375 24.7559C25.3375 24.4904 25.3861 24.2625 25.4832 24.0723C25.5804 23.8812 25.7131 23.7347 25.8815 23.6327C26.0507 23.5299 26.243 23.4785 26.4583 23.4785C26.6728 23.4785 26.8642 23.5299 27.0326 23.6327C27.2018 23.7347 27.335 23.8812 27.4321 24.0723C27.5293 24.2625 27.5778 24.4904 27.5778 24.7559ZM27.2063 24.7559C27.2063 24.5535 27.1735 24.3831 27.1079 24.2447C27.0432 24.1055 26.9541 24.0002 26.8408 23.929C26.7282 23.857 26.6008 23.8209 26.4583 23.8209C26.315 23.8209 26.1871 23.857 26.0746 23.929C25.962 24.0002 25.873 24.1055 25.8074 24.2447C25.7427 24.3831 25.7103 24.5535 25.7103 24.7559C25.7103 24.9583 25.7427 25.1291 25.8074 25.2683C25.873 25.4068 25.962 25.512 26.0746 25.584C26.1871 25.6553 26.315 25.6909 26.4583 25.6909C26.6008 25.6909 26.7282 25.6553 26.8408 25.584C26.9541 25.512 27.0432 25.4068 27.1079 25.2683C27.1735 25.1291 27.2063 24.9583 27.2063 24.7559Z" fill="#1B1B1B"/>
<path d="M30.6956 25.9985V23.5117H31.0708V25.6755H32.1977V25.9985H30.6956Z" fill="#1B1B1B"/>
<path d="M37.3391 24.7559C37.3391 25.0214 37.2905 25.2497 37.1934 25.4408C37.0962 25.631 36.9631 25.7775 36.7939 25.8803C36.6255 25.9823 36.434 26.0333 36.2195 26.0333C36.0042 26.0333 35.812 25.9823 35.6428 25.8803C35.4744 25.7775 35.3416 25.6306 35.2445 25.4396C35.1473 25.2485 35.0988 25.0206 35.0988 24.7559C35.0988 24.4904 35.1473 24.2625 35.2445 24.0723C35.3416 23.8812 35.4744 23.7347 35.6428 23.6327C35.812 23.5299 36.0042 23.4785 36.2195 23.4785C36.434 23.4785 36.6255 23.5299 36.7939 23.6327C36.9631 23.7347 37.0962 23.8812 37.1934 24.0723C37.2905 24.2625 37.3391 24.4904 37.3391 24.7559ZM36.9675 24.7559C36.9675 24.5535 36.9347 24.3831 36.8692 24.2447C36.8044 24.1055 36.7154 24.0002 36.602 23.929C36.4895 23.857 36.362 23.8209 36.2195 23.8209C36.0762 23.8209 35.9484 23.857 35.8358 23.929C35.7233 24.0002 35.6342 24.1055 35.5687 24.2447C35.5039 24.3831 35.4715 24.5535 35.4715 24.7559C35.4715 24.9583 35.5039 25.1291 35.5687 25.2683C35.6342 25.4068 35.7233 25.512 35.8358 25.584C35.9484 25.6553 36.0762 25.6909 36.2195 25.6909C36.362 25.6909 36.4895 25.6553 36.602 25.584C36.7154 25.512 36.8044 25.4068 36.8692 25.2683C36.9347 25.1291 36.9675 24.9583 36.9675 24.7559Z" fill="#1B1B1B"/>
<path d="M42.14 24.2981C42.1164 24.2245 42.0848 24.1585 42.0452 24.1002C42.0064 24.0411 41.9596 23.9909 41.9056 23.9496C41.8512 23.9076 41.7892 23.8756 41.7196 23.8537C41.6508 23.8318 41.5752 23.8209 41.4928 23.8209C41.3528 23.8209 41.2264 23.857 41.114 23.929C41.0012 24.001 40.9124 24.1067 40.8468 24.2459C40.782 24.3844 40.7496 24.554 40.7496 24.7547C40.7496 24.9563 40.7824 25.1267 40.848 25.2659C40.9136 25.4052 41.0032 25.5108 41.1176 25.5828C41.2316 25.6549 41.3616 25.6909 41.5072 25.6909C41.6424 25.6909 41.7604 25.6634 41.8604 25.6083C41.9616 25.5533 42.04 25.4756 42.0948 25.3752C42.1508 25.274 42.1788 25.155 42.1788 25.0182L42.276 25.0364H41.5644V24.7268H42.5416V25.0097C42.5416 25.2186 42.4972 25.3999 42.4084 25.5537C42.32 25.7067 42.1976 25.8249 42.0416 25.9082C41.886 25.9916 41.708 26.0333 41.5072 26.0333C41.282 26.0333 41.0848 25.9815 40.9148 25.8779C40.7456 25.7743 40.6136 25.6274 40.5188 25.4371C40.424 25.2461 40.3768 25.0194 40.3768 24.7571C40.3768 24.5588 40.4044 24.3807 40.4592 24.2228C40.5144 24.065 40.5916 23.931 40.6912 23.8209C40.7916 23.71 40.9096 23.6254 41.0448 23.5672C41.1804 23.508 41.3292 23.4785 41.4904 23.4785C41.6248 23.4785 41.7496 23.4983 41.8656 23.538C41.982 23.5777 42.0856 23.6339 42.1764 23.7068C42.2676 23.7796 42.3436 23.8663 42.4032 23.9666C42.4632 24.0662 42.5036 24.1767 42.5248 24.2981H42.14Z" fill="#1B1B1B"/>
<path d="M46.0432 23.5117V25.9985H45.668V23.5117H46.0432Z" fill="#1B1B1B"/>
<path d="M49.2396 25.9985V23.5117H50.7988V23.8347H49.6148V24.5924H50.7176V24.9142H49.6148V25.6755H50.8136V25.9985H49.2396Z" fill="#1B1B1B"/>
<path d="M55.3064 24.1658C55.2936 24.0508 55.24 23.9618 55.146 23.8986C55.0524 23.8347 54.934 23.8027 54.7916 23.8027C54.6896 23.8027 54.6012 23.8189 54.5268 23.8513C54.4524 23.8828 54.3944 23.9266 54.3532 23.9824C54.3128 24.0375 54.2924 24.1002 54.2924 24.1706C54.2924 24.2297 54.3064 24.2807 54.3336 24.3236C54.362 24.3665 54.3988 24.4026 54.4444 24.4317C54.4904 24.46 54.54 24.4839 54.5924 24.5034C54.6452 24.522 54.6956 24.5374 54.7444 24.5495L54.9872 24.6126C55.0664 24.632 55.1476 24.6584 55.2312 24.6916C55.3144 24.7248 55.392 24.7685 55.4632 24.8227C55.5344 24.8769 55.5916 24.9441 55.6356 25.0243C55.68 25.1044 55.7024 25.2003 55.7024 25.312C55.7024 25.4529 55.666 25.578 55.5928 25.6872C55.5208 25.7965 55.416 25.8828 55.2784 25.9459C55.1416 26.009 54.976 26.0406 54.782 26.0406C54.5956 26.0406 54.4344 26.0111 54.2984 25.952C54.1624 25.8929 54.056 25.8091 53.9792 25.7006C53.9024 25.5913 53.86 25.4618 53.8516 25.312H54.228C54.2356 25.4019 54.2644 25.4768 54.3156 25.5367C54.3672 25.5958 54.4332 25.6399 54.5136 25.669C54.5944 25.6974 54.6832 25.7116 54.7796 25.7116C54.8856 25.7116 54.9796 25.695 55.0624 25.6618C55.1456 25.6278 55.2112 25.5808 55.2592 25.5209C55.3068 25.4602 55.3308 25.3894 55.3308 25.3084C55.3308 25.2348 55.3096 25.1744 55.2676 25.1275C55.2264 25.0805 55.17 25.0417 55.0988 25.0109C55.0284 24.9802 54.9488 24.953 54.8596 24.9296L54.5656 24.8494C54.3664 24.7952 54.2088 24.7154 54.092 24.6102C53.9764 24.505 53.9184 24.3657 53.9184 24.1925C53.9184 24.0492 53.9572 23.9242 54.0352 23.8173C54.1128 23.7104 54.218 23.6274 54.3508 23.5684C54.4836 23.5084 54.6332 23.4785 54.8 23.4785C54.9684 23.4785 55.1168 23.508 55.2456 23.5672C55.3752 23.6262 55.4772 23.7076 55.5516 23.8112C55.626 23.914 55.6652 24.0322 55.6684 24.1658H55.3064Z" fill="#1B1B1B"/>
</g>
<defs>
<linearGradient id="paint0_linear_651_4697" x1="7.23404" y1="7.20357" x2="42.0676" y2="16.507" gradientUnits="userSpaceOnUse">
<stop stop-color="#E3401F"/>
<stop offset="1" stop-color="#2F5BA1"/>
</linearGradient>
<linearGradient id="paint1_linear_651_4697" x1="7.23404" y1="7.20448" x2="42.0676" y2="16.508" gradientUnits="userSpaceOnUse">
<stop stop-color="#E3401F"/>
<stop offset="1" stop-color="#2F5BA1"/>
</linearGradient>
<linearGradient id="paint2_linear_651_4697" x1="7.23406" y1="7.20448" x2="42.0676" y2="16.508" gradientUnits="userSpaceOnUse">
<stop stop-color="#E3401F"/>
<stop offset="1" stop-color="#2F5BA1"/>
</linearGradient>
<linearGradient id="paint3_linear_651_4697" x1="7.23404" y1="7.20448" x2="42.0676" y2="16.508" gradientUnits="userSpaceOnUse">
<stop stop-color="#E3401F"/>
<stop offset="1" stop-color="#2F5BA1"/>
</linearGradient>
<linearGradient id="paint4_linear_651_4697" x1="7.23405" y1="7.20448" x2="42.0676" y2="16.508" gradientUnits="userSpaceOnUse">
<stop stop-color="#E3401F"/>
<stop offset="1" stop-color="#2F5BA1"/>
</linearGradient>
<linearGradient id="paint5_linear_651_4697" x1="7.23403" y1="7.20448" x2="42.0676" y2="16.508" gradientUnits="userSpaceOnUse">
<stop stop-color="#E3401F"/>
<stop offset="1" stop-color="#2F5BA1"/>
</linearGradient>
<clipPath id="clip0_651_4697">
<rect width="56" height="26.4" fill="white"/>
</clipPath>
</defs>
</svg>
