<svg width="20" height="20" viewBox="0 0 20 20" fill="none" xmlns="http://www.w3.org/2000/svg">
<path d="M14.5 6.25V4C14.5 2.75736 13.4926 1.75 12.25 1.75H4C2.75736 1.75 1.75 2.75736 1.75 4V12.25C1.75 13.4926 2.75736 14.5 4 14.5H6.25M14.5 6.25H16C17.2426 6.25 18.25 7.25736 18.25 8.5V16C18.25 17.2426 17.2426 18.25 16 18.25H8.5C7.25736 18.25 6.25 17.2426 6.25 16V14.5M14.5 6.25H8.5C7.25736 6.25 6.25 7.25736 6.25 8.5V14.5" stroke="#64748B" stroke-width="2" stroke-linecap="round" stroke-linejoin="round"/>
</svg>
