<svg width="20" height="20" viewBox="0 0 20 20" fill="none" xmlns="http://www.w3.org/2000/svg">
<path d="M8.46458 2.95725C8.85508 1.34758 11.1449 1.34758 11.5354 2.95725C11.594 3.19907 11.7089 3.42363 11.8707 3.61267C12.0324 3.8017 12.2366 3.94987 12.4664 4.0451C12.6963 4.14033 12.9454 4.17995 13.1935 4.16071C13.4415 4.14148 13.6816 4.06394 13.894 3.93442C15.3084 3.07275 16.9282 4.69158 16.0665 6.10692C15.9372 6.31927 15.8597 6.55914 15.8406 6.80704C15.8214 7.05494 15.8609 7.30387 15.9561 7.5336C16.0512 7.76332 16.1992 7.96736 16.388 8.12913C16.5768 8.2909 16.8012 8.40583 17.0428 8.46458C18.6524 8.85508 18.6524 11.1449 17.0428 11.5354C16.8009 11.594 16.5764 11.7089 16.3873 11.8707C16.1983 12.0324 16.0501 12.2366 15.9549 12.4664C15.8597 12.6963 15.8201 12.9454 15.8393 13.1935C15.8585 13.4415 15.9361 13.6816 16.0656 13.894C16.9273 15.3084 15.3084 16.9282 13.8931 16.0665C13.6807 15.9372 13.4409 15.8597 13.193 15.8406C12.9451 15.8214 12.6961 15.8609 12.4664 15.9561C12.2367 16.0512 12.0326 16.1992 11.8709 16.388C11.7091 16.5768 11.5942 16.8012 11.5354 17.0428C11.1449 18.6524 8.85508 18.6524 8.46458 17.0428C8.40599 16.8009 8.29113 16.5764 8.12935 16.3873C7.96757 16.1983 7.76344 16.0501 7.53357 15.9549C7.3037 15.8597 7.0546 15.8201 6.80653 15.8393C6.55846 15.8585 6.31844 15.9361 6.106 16.0656C4.69158 16.9273 3.07183 15.3084 3.9335 13.8931C4.06284 13.6807 4.14025 13.4409 4.15944 13.193C4.17863 12.9451 4.13906 12.6961 4.04393 12.4664C3.94881 12.2367 3.80082 12.0326 3.612 11.8709C3.42318 11.7091 3.19885 11.5942 2.95725 11.5354C1.34758 11.1449 1.34758 8.85508 2.95725 8.46458C3.19907 8.40599 3.42363 8.29113 3.61267 8.12935C3.8017 7.96757 3.94987 7.76344 4.0451 7.53357C4.14033 7.3037 4.17995 7.0546 4.16071 6.80653C4.14148 6.55846 4.06394 6.31844 3.93442 6.106C3.07275 4.69158 4.69158 3.07183 6.10692 3.9335C7.02358 4.49083 8.21158 3.99767 8.46458 2.95725Z" stroke="#2563EB" stroke-width="2" stroke-linecap="round" stroke-linejoin="round"/>
<path d="M10 12.75C11.5188 12.75 12.75 11.5188 12.75 10C12.75 8.48122 11.5188 7.25 10 7.25C8.48122 7.25 7.25 8.48122 7.25 10C7.25 11.5188 8.48122 12.75 10 12.75Z" stroke="#2563EB" stroke-width="2" stroke-linecap="round" stroke-linejoin="round"/>
</svg>
